<svg xmlns="http://www.w3.org/2000/svg" version="1.1" xmlns:xlink="http://www.w3.org/1999/xlink" xmlns:svgjs="http://svgjs.com/svgjs" width="446.16" height="512"><svg xmlns="http://www.w3.org/2000/svg" viewBox="0 0 446.16 512"><path d="M130.47,281.73c-10.93-6.24-23.42-6.85-14.06-24.13,3.2-5.89-3-25.69-13.56-37.22a304.31,304.31,0,0,1-57-90.67,170.48,170.48,0,0,1-12-83.11C36.78,18,48.83,8.48,77,15.73c48.73,12.56,85.65,42.87,116.71,81.34,3.65,4.53,4.84,11.62,13.77,13.45,2.23-17.2,5.11-34,6.37-50.86,1-14.08,9.07-19.1,21.38-20.25,13.13-1.23,26,.4,39,2.61,13.28,2.25,18.75,10,20.34,22.23s3.39,24.41,5.45,39.07c10.77-14,19.9-26.58,29.81-38.54,25.42-30.7,57.93-51.17,96-61.59s55.41,4.74,53.05,44.1c-3.3,54.84-23.53,103.18-57.23,146.09-8.67,11-17.74,21.58-11.22,37.07.25.6,0,1.42.18,2.05,4.85,14.29-17.1,11.72-14.78,22.21,2,9,15.19,16.07,2.68,26.63-1.29,1.1-2.72,4.42-2.34,4.77,22.69,20.69-6.29,21-12,30.13-17,27.11-44.87,35.45-73.82,41.44-8.33,1.73-7.95,8.29-9,14.29-5.51,32.21-.51,64.21,1.88,96.26.3,4.11,1.6,8.13,2.19,12.22,4.66,32.16.87,36-31.08,27.8-21.14-5.46-41.11,1.77-61.47,3.54-16.31,1.42-19.27-4.25-16.84-18.53,6.59-38.76,13.43-77.47,13.91-117,.14-11.61-2.17-17.16-14.58-19.71-14.72-3-29.14-8.53-42.94-14.67-8.45-3.76-23.51-4.92-13.4-22.51,3.23-5.62-8.43-8.7-13.07-13.09C116,296.87,103.22,288,130.47,281.73Zm277.2-88c39.33-40.79,57.74-88.5,62.9-142,3.9-40.3-11.49-53-50-40C376.62,26.49,341.7,53.4,317.43,93.47c-8.58,14.18-21.33,28.13,2.19,40.51-4.89,3.78-8.09,1.61-11.34,1-3.44-.64-7.5-1.24-8.14,3.32-.62,4.39,3.27,5.43,6.83,5.67,29.12,1.91,57.75,11.55,87.51,6-4-12.54-15.52-3.88-23.68-8.81,19.26-12.91,44.28-15.59,55.37-37.16-24.24-16.45-38.5,18.61-65.87,10.82,30.43-15.72,57-30,74.8-58.22-19.59,1-34.94,14-56.77,5.72,21-6.68,37.91-12.06,54.82-17.46,3.22-1,6.63-2.9,9.68-.35,4.05,3.38,1.75,7.62.48,11.37-4.84,14.32-17,24-25.34,35.61,7.66,7.09,14.75-2.57,21.81,3.71-3.52,6.38-7.28,12.8-10.66,19.41-6.85,13.4-30.79,14.23-23.92,39.78C407.79,164,404.09,178.86,407.67,193.76ZM75.84,73.12c8.29,19.44,32.76,18.47,45.49,36.46-11.32,1.61-23.26-4.41-28.64,8.16,14.49,11.43,33.29,7.94,51.83,17.14-13.83,8.07-28.16,1.19-37.25,11-1.93,2.06-7.49,1.39-5.12,6.38,1.76,3.73,6.19,8.68,9.29,6.66,23.56-15.36,49.69-4.19,74.33-7.89,19.3-2.91,25.29-11.12,14.44-28.26-28.86-45.57-67.52-80-119.64-96.52C51.67,17,42.74,24.47,42.65,55.1c-.18,55.32,24.69,100.77,57.23,143,3,3.84,4.55,10.5,11.87,9,2.25-25.95,2.13-25.86-13.91-45.56-7.7-9.45-15-19.34,4.43-25.25-29-18.46-29-18.46-11-34-12.61-7.81-24.09-16.71-30-30.56-3.22-7.56-2.79-14.84,8-13.11,15.64,2.5,31,6.53,48,10.24C103.44,81.61,89.45,69.57,75.84,73.12ZM366.62,280.56c7.93-.93,14-1.33,19.95-2.47,3-.58,8.8-2.43,6.75-5.54-6.5-9.87-10-26.46-23.47-25.76-18.88,1-36.68-4.09-55.12-4.76-15-.56-16.58,5.29-15.39,18,2.11,22.53,2,45.26,3.72,67.85.49,6.51-4.94,18.56,5.46,18.61a82.51,82.51,0,0,0,44.64-13.11c-12.43-17.38,6-14.68,12.73-19.38,8.12-5.7,22.33-7.15,23.18-17.43C389.87,287,373.5,291.27,366.62,280.56Zm-212.84-4.94-27.67,19.19c4.28,3.36,8.67,5.16,10.29,8.37,6.75,13.36,37.95,3,29.81,30.79-.13.44,4.42,2.65,7,3.41,7.89,2.34,15.95,4.13,23.79,6.6,10.71,3.36,15.18,0,14.94-11.46-.28-13,.67-26.08.93-39.12.91-45.76-10.62-55.45-55.63-46.79-2,.39-3.87,1.57-5.87,1.82-12.29,1.55-19.33,8.34-21.86,21.15Z" transform="translate(-32.92 0)"></path></svg><style>@media (prefers-color-scheme: light) { :root { filter: none; } }
@media (prefers-color-scheme: dark) { :root { filter: invert(100%); } }
</style></svg>