<?xml version="1.0" standalone="no"?>
<!DOCTYPE svg PUBLIC "-//W3C//DTD SVG 20010904//EN"
 "http://www.w3.org/TR/2001/REC-SVG-20010904/DTD/svg10.dtd">
<svg version="1.0" xmlns="http://www.w3.org/2000/svg"
 width="700.000000pt" height="700.000000pt" viewBox="0 0 700.000000 700.000000"
 preserveAspectRatio="xMidYMid meet">
<metadata>
Created by potrace 1.14, written by Peter Selinger 2001-2017
</metadata>
<g transform="translate(0.000000,700.000000) scale(0.100000,-0.100000)"
fill="#000000" stroke="none">
<path d="M3430 6987 c-20 -7 -62 -33 -95 -57 -33 -24 -136 -101 -230 -170 -93
-69 -243 -180 -332 -246 -89 -65 -259 -191 -378 -279 -466 -344 -710 -525
-720 -532 -5 -5 -120 -89 -255 -188 -135 -99 -251 -185 -258 -192 -8 -7 -22
-18 -32 -23 -30 -16 -71 -95 -72 -137 -1 -71 39 -135 106 -170 39 -20 54 -22
297 -22 l216 -1 0 -1010 c0 -556 -1 -1010 -3 -1010 -20 0 -310 85 -459 135
-430 143 -780 307 -1075 505 -47 32 -98 70 -113 86 l-28 28 6 -114 c6 -118 9
-152 20 -255 10 -90 34 -251 45 -298 5 -23 11 -57 15 -75 3 -18 12 -61 21 -95
8 -34 17 -71 19 -82 10 -45 69 -236 100 -326 122 -352 341 -764 549 -1034 25
-33 56 -73 68 -90 58 -75 170 -201 281 -314 278 -283 597 -513 952 -687 134
-65 382 -166 439 -179 11 -2 59 -16 106 -30 47 -14 94 -27 105 -29 11 -3 50
-12 88 -20 122 -29 240 -48 402 -63 156 -15 558 -8 675 11 14 3 45 7 70 10 47
6 88 13 130 21 14 3 34 7 46 9 123 23 355 90 500 144 245 91 563 263 787 425
40 28 77 56 84 62 6 5 26 21 44 35 81 61 243 207 345 312 243 248 436 508 607
816 71 127 110 209 197 407 111 252 237 724 265 995 3 30 8 66 10 80 17 111
29 390 16 390 -6 0 -20 -10 -33 -23 -49 -47 -285 -207 -308 -207 -5 0 -10 -3
-10 -7 0 -5 -10 -13 -23 -19 -12 -6 -78 -40 -147 -75 -69 -36 -156 -79 -195
-96 -38 -17 -92 -41 -119 -53 -184 -82 -655 -243 -802 -274 l-31 -7 0 1000 0
1000 241 3 c230 3 243 4 281 26 56 32 87 82 93 147 7 85 -19 119 -173 233 -71
52 -204 151 -295 218 -191 141 -685 507 -715 528 -72 53 -172 127 -180 133 -5
5 -104 78 -220 163 -115 85 -283 209 -372 275 -407 302 -402 299 -478 303 -22
1 -56 -4 -75 -11z"/>
</g>
</svg>
