<?xml version="1.0" encoding="UTF-8"?><svg id="Layer_1" xmlns="http://www.w3.org/2000/svg" viewBox="0 0 64 64"><defs><style>.cls-1{fill:#fff;}</style></defs><path class="cls-1" d="M32,0C49.67,0,64,14.33,64,32s-14.33,32-32,32S0,49.67,0,32,14.33,0,32,0Zm13.36,25.95c1.2-1.85,.67-4.33-1.18-5.53-1.85-1.2-4.33-.67-5.53,1.18l-9.51,14.68-4.13-4.69c-1.46-1.66-3.99-1.82-5.64-.36-1.66,1.46-1.82,3.99-.36,5.65l7.62,8.66c.76,.87,1.86,1.36,3,1.36,.1,0,.19,0,.29-.01,1.25-.09,2.38-.76,3.06-1.81l12.38-19.11Z"/></svg>