<svg xmlns="http://www.w3.org/2000/svg" viewBox="0 0 993 993"><defs><style>.a{stroke:#000;stroke-miterlimit:10;stroke-width:61px;}</style></defs><path class="a" d="M492.61,962.51a459.61,459.61,0,0,1-181-36.81A469.64,469.64,0,0,1,63.42,677.48a463.28,463.28,0,0,1,0-362A469.64,469.64,0,0,1,311.63,67.31a459.6,459.6,0,0,1,181-36.8A507.07,507.07,0,0,1,672.93,63.13C728.27,84.05,778.11,114,821,152.05c43,38.23,76.84,82.73,100.52,132.28a373.41,373.41,0,0,1,37.09,162.34c0,70.85-27.77,137.71-78.27,188.21s-117.26,78.27-188.2,78.27H602.36c-33,0-57.82,24.82-57.82,57.82,0,14.74,5.32,28.25,14.93,37.85,16.07,16.07,24.92,38,24.92,61.91,0,25-9.42,48.31-26.54,65.34S517.62,962.51,492.61,962.51Zm0-898A427.51,427.51,0,0,0,325,98.6,436,436,0,0,0,94.7,328.84a429.94,429.94,0,0,0,0,335.33A436,436,0,0,0,325,894.41a426.06,426.06,0,0,0,167.66,34.05c33,0,57.82-24.82,57.82-57.82,0-14.74-5.32-28.25-14.93-37.85-16.07-16.08-24.91-38-24.91-61.92,0-25,9.41-48.21,26.53-65.33S577.44,679,602.45,679h89.78c61.82,0,120.11-24.26,164.15-68.29s68.28-102.33,68.28-164.14A339.3,339.3,0,0,0,890.9,299c-21.68-45.46-52.78-86.35-92.44-121.54-39.75-35.38-86-63.15-137.52-82.55A475,475,0,0,0,492.61,64.55ZM767,513.53c-25,0-48.22-9.42-65.33-26.53s-26.54-40.33-26.54-65.34,9.42-48.22,26.54-65.34S742,329.79,767,329.79s48.22,9.42,65.34,26.53,26.53,40.33,26.53,65.34-9.42,48.22-26.53,65.34S792.09,513.53,767,513.53Zm0-149.69c-33,0-57.82,24.82-57.82,57.82S734,479.48,767,479.48s57.82-24.82,57.82-57.82S800,363.84,767,363.84ZM218.24,513.53c-25,0-48.31-9.42-65.33-26.53s-26.54-40.33-26.54-65.34,9.42-48.22,26.54-65.34,40.32-26.53,65.33-26.53,48.22,9.42,65.34,26.53,26.53,40.33,26.53,65.34S300.7,469.88,283.58,487,243.25,513.53,218.24,513.53Zm0-149.69c-33,0-57.82,24.82-57.82,57.82s24.82,57.82,57.82,57.82,57.82-24.82,57.82-57.82S251.15,363.84,218.24,363.84Zm399-49.84c-25,0-48.22-9.41-65.33-26.53s-26.54-40.32-26.54-65.33,9.42-48.22,26.54-65.34,40.32-26.53,65.33-26.53,48.31,9.41,65.34,26.53,26.53,40.32,26.53,65.34-9.42,48.21-26.53,65.33S642.4,314,617.29,314Zm0-149.69c-33,0-57.82,24.83-57.82,57.83S584.29,280,617.29,280s57.82-24.82,57.82-57.82S650.29,164.31,617.29,164.31ZM367.93,314c-25,0-48.21-9.41-65.33-26.53s-26.54-40.32-26.54-65.33,9.42-48.22,26.54-65.34,40.32-26.53,65.33-26.53,48.22,9.41,65.34,26.53,26.53,40.32,26.53,65.34-9.41,48.21-26.53,65.33S392.94,314,367.93,314Zm0-149.69c-33,0-57.82,24.83-57.82,57.83S334.93,280,367.93,280s57.82-24.82,57.82-57.82S400.84,164.31,367.93,164.31Z" transform="translate(3.89 -0.01)"/></svg>