<?xml version="1.0" encoding="utf-8"?>
<!-- Generator: Adobe Illustrator 26.0.3, SVG Export Plug-In . SVG Version: 6.00 Build 0)  -->
<svg version="1.1" id="Layer_1" xmlns="http://www.w3.org/2000/svg" xmlns:xlink="http://www.w3.org/1999/xlink" x="0px" y="0px"
	 viewBox="0 0 696.3 523.8" style="enable-background:new 0 0 696.3 523.8;" xml:space="preserve">
<style type="text/css">
	.st0{fill:#DC3E26;}
</style>
<path class="st0" d="M698,215.8c-2,170.3-132.5,308.5-289,308c-154.5-0.5-283.2-136.3-287-304.4c26,24,130.5,80.1,288,79.4
	C568.3,298.1,672.4,240,698,215.8z"/>
<path class="st0" d="M260.1,95.7v221.8c14.2,11.5,68.9,52.8,150.8,52.3c81-0.5,135-41.7,149.1-53.3V95.7"/>
<path class="st0" d="M561.5,0.1L333.8,27.9c-15.1,1.8-18.1,21.2-4.5,28.9l321.1,181.7c13.6,7.7,28.6-4.8,22.4-18.7L579.5,10.3
	C576.3,3.4,569-0.7,561.5,0.1z"/>
<rect x="-14.6" y="449.2" transform="matrix(0.846 -0.5332 0.5332 0.846 -227.134 125.0413)" class="st0" width="235" height="13"/>
</svg>
