<?xml version="1.0" encoding="utf-8"?>
<!-- Svg Vector Icons : http://www.onlinewebfonts.com/icon -->
<!DOCTYPE svg PUBLIC "-//W3C//DTD SVG 1.1//EN" "http://www.w3.org/Graphics/SVG/1.1/DTD/svg11.dtd">
<svg version="1.1" xmlns="http://www.w3.org/2000/svg" xmlns:xlink="http://www.w3.org/1999/xlink" x="0px" y="0px" viewBox="0 0 1000 1000" enable-background="new 0 0 1000 1000" xml:space="preserve">
<metadata> Svg Vector Icons : http://www.onlinewebfonts.com/icon </metadata>
<g><path d="M556.2,922.9c-7.6,0-15.4-1.5-23.2-4.5c-12.4-4.7-25.6-11.9-39.1-21.3c-12.4-8.7-25.6-18.8-39-30.1c-12.8-10.8-25.3-21-37.5-30.7c-11.3-9-22.3-16.8-32.8-23.1c-8.6-5.2-14-6.3-16.9-6.3c-4.7,0-15.3,1.9-33.4,15c-18.9,13.7-38.1,28.2-57.1,43.1c-20.9,16.5-41.2,30-60.2,40.3c-27.8,15-54.7,14.4-75-0.8c-15-10.8-23.4-28.1-23.4-48.4c0-13.9,2.5-28.9,7.6-46c4.7-15.5,10.8-31.7,18.3-48.1c6.9-15.3,13.1-30,18.3-43.6c5.2-13.6,9.2-26.6,12.1-38.6c2.5-10.7,1.7-16.1,1-18.4c-0.5-1.7-2.7-6.7-11-14.1c-9.1-8.2-20-16.7-32.3-25.1c-13.2-9-26.8-18.1-40.6-27.1c-14.9-9.7-28.5-19.6-40.3-29.6c-13.2-11-23.6-22.5-31.1-34C9.3,514.6,7,495.4,13.9,477.4c4.7-12.2,15.5-28.6,40.2-36.5c13.3-4.3,28.6-6.9,45.6-7.7c15.4-0.7,32.3-0.6,50.7,0.5c17.4,1.1,33.9,2.1,49.8,3.2c14.5,1,27.8,1.2,39.7,0.5c11.9-0.7,16-2.9,16.4-3.2c0.3-0.2,7.2-4.5,16.2-28c8.2-21.6,16.5-44.6,24.4-68.5c8.3-24.9,17-47.7,25.8-67.6c13.6-30.5,32.2-46,55.4-46c12.1,0,29.6,4.7,44.2,27.1c7.2,11,13.9,24.7,19.9,40.7c5.4,14.5,10.7,30.4,16,48.5c4.9,16.7,9.8,32.7,14.6,48c4.7,14.7,9.5,27.9,14.3,39c3.9,9.1,6.6,12.3,7.2,13c0.1,0,3.6,1.3,11.9,1.9c11.6,1,24.4,1.1,38.5,0.5c15.6-0.7,32-1.4,49.3-2.1c18.5-0.8,35.9-0.4,52,1.2c6.6,0.6,12.9,1.5,19,2.7c-14.5-11.4-19.8-30.2-14.3-51.1c3.1-11.5,7.5-23.7,13.1-36.4c4.7-10.6,9-21.4,12.6-32c1.3-3.7,1.9-6.2,2.1-7.8c-1.2-1.3-3.4-3.4-7.1-6.1c-9.4-6.8-19.2-13.6-29.3-20.5c-11.6-7.9-21.8-16-30.4-24.1c-23-22-17.4-44.3-14-52.9c3.9-9.6,14.6-26.6,43-30.2c12.4-1.6,25.3-2,39.5-1.2l36.1,2c3.1,0.2,6.1,0.1,7.7,0c0.8-1.3,1.9-3.5,3.2-6.8c4.1-10.5,8.1-21.5,12-33c4.3-13,8.9-24.9,13.5-35.3c11.9-26.4,29.1-31.9,41.5-31.9c12.4,0,29.6,5.5,41.4,31.9c4.8,10.8,9.3,23.1,13.4,36.7c3.6,12.1,7.2,23.7,10.8,34.8c0.8,2.7,1.6,4.7,2.2,6.1c0.7,0,1.6,0.1,2.6,0.1l45-1.1c12.4,0,24.3,1,35.2,3.1c28.2,5.3,38.6,22.9,42.3,32.9c3.3,9.1,8.2,32.4-16.3,53.8c-9.3,8.2-20.5,16.1-33.3,23.4c-10.7,6.1-20.8,12.3-30.5,18.4c-1.9,1.2-3.2,2.2-4.2,2.9c0.3,1.6,0.8,4.3,2.1,8.4c3.6,11.4,7.3,23.1,11.3,35c4.5,13.7,7.8,25.7,9.9,36.7c6.3,30.8-10.9,46.1-18.5,51.2l-2.1,1.3c-15.2,8.5-33.8,7.4-51.8-3.7c-10-6.2-20.3-13.8-30.8-22.8c-9-7.7-18-15.1-27-22.2c-4-3.2-6.4-4.3-7.4-4.7c-0.2,0.4-3,1.4-7.6,4.8c-9.4,6.8-18.7,13.9-28.1,21.3c-10.7,8.5-21.5,15.8-32,21.6c-7.7,4.3-15.5,6.8-23.2,7.5c16.7,8,28.6,20.7,34.4,37.1c6.7,18.5,4.4,37.4-6.5,54.7c-8,12.6-19.5,24.5-34.4,35.5c-12.7,9.4-27.3,18.8-43.2,28.1c-15,8.7-29.2,17.2-42.8,25.5c-12.4,7.6-23.3,15.3-32.4,22.9c-7.4,6.2-8.9,9.5-8.9,9.5c-0.2,1-1,6.5,1.4,18c2.5,11.7,6.3,25,11.2,39.5L593,773c5.9,17,10.7,33.4,14.1,48.6c3.8,16.7,5.3,32.1,4.4,45.8c-1.7,25.4-14.1,39.1-24.3,46.1C577.1,920,567,922.9,556.2,922.9z"/></g>
</svg>