<svg xmlns="http://www.w3.org/2000/svg" viewBox="0 0 1000 1000"><defs><style>.a{fill:#fff;}</style></defs><circle cx="500" cy="500" r="500"/><path class="a" d="M721.09,299.05a526.88,526.88,0,0,0-131.41-40.43,361.66,361.66,0,0,0-16.84,34.22,489,489,0,0,0-145.84,0,359.17,359.17,0,0,0-16.83-34.22,530.48,530.48,0,0,0-131.51,40.53C195.49,422.2,173,542.18,184.22,660.47h0a529.8,529.8,0,0,0,161.17,80.91,389,389,0,0,0,34.52-55.66,342.52,342.52,0,0,1-54.36-26c4.56-3.31,9-6.72,13.33-10a378.62,378.62,0,0,0,322.24,0c4.36,3.55,8.82,7,13.33,10a345.09,345.09,0,0,1-54.46,26,386.16,386.16,0,0,0,34.52,55.61,527.38,527.38,0,0,0,161.27-80.86h0C829,523.35,793.18,404.46,721.09,299.05ZM394.19,587.72c-31.41,0-57.37-28.5-57.37-63.57s25.05-63.83,57.27-63.83,58,28.76,57.41,63.83S426.2,587.72,394.19,587.72Zm211.62,0c-31.46,0-57.31-28.5-57.31-63.57s25-63.83,57.31-63.83,57.81,28.76,57.26,63.83S637.82,587.72,605.81,587.72Z"/></svg>