<?xml version="1.0" encoding="UTF-8"?><svg id="Layer_1" xmlns="http://www.w3.org/2000/svg" viewBox="0 0 1000 1000"><path d="M500,0c276.14,0,500,223.86,500,500s-223.86,500-500,500S0,776.14,0,500,223.86,0,500,0Zm221.09,299.05c-41.85-19.16-86.03-32.75-131.41-40.43-6.21,11.1-11.83,22.53-16.84,34.22-48.34-7.29-97.5-7.29-145.84,0-5-11.7-10.62-23.12-16.83-34.22-45.41,7.74-89.62,21.37-131.51,40.53-83.17,123.05-105.66,243.03-94.44,361.32h0c48.7,35.98,103.22,63.35,161.17,80.91,13.05-17.55,24.6-36.17,34.52-55.66-18.85-7.05-37.04-15.75-54.36-26,4.56-3.31,9-6.72,13.33-10,102.05,47.99,220.19,47.99,322.24,0,4.36,3.55,8.82,7,13.33,10-17.36,10.24-35.58,18.94-54.46,26,9.91,19.48,21.46,38.08,34.52,55.61,58-17.49,112.56-44.84,161.27-80.86h0c13.22-137.12-22.6-256.01-94.69-361.42Zm-326.9,288.67c-31.41,0-57.37-28.5-57.37-63.57s25.05-63.83,57.27-63.83,58,28.76,57.41,63.83-25.3,63.57-57.31,63.57Zm211.62,0c-31.46,0-57.31-28.5-57.31-63.57s25-63.83,57.31-63.83,57.81,28.76,57.26,63.83-25.25,63.57-57.26,63.57Z"/></svg>