<?xml version="1.0" encoding="UTF-8"?><svg id="Layer_2" xmlns="http://www.w3.org/2000/svg" viewBox="0 0 1000 1000"><defs><style>.cls-1{fill:#fff;}</style></defs><path d="M500,0c276.14,0,500,223.86,500,500s-223.86,500-500,500S0,776.14,0,500,223.86,0,500,0Zm263.65,457.62c2.62,1.15,5.14,2.88,7.88,3.34,8.5,1.43,17.15,3.63,25.61,3.19,9.83-.51,19.72-2.9,29.17-5.8,2.65-.81,3.88-6.29,5.75-9.62-3.3-1.74-6.41-4.3-9.92-5.07-15.98-3.49-28.99,7.88-44.06,9.35-4.7,.46-9.34,1.51-14,2.29l-.44,2.33Zm-51.13,293.61c3.88,11.59,7.55,23.28,12.31,34.5,.82,1.92,7.07,3.35,9.8,2.32,8.87-3.35,11.31-23.05,3.47-28.5-7.58-5.27-16.05-9.26-25-14.3-.35,3.2-.99,4.76-.58,5.98ZM239.88,390.79c.64-10.33-10.61-24.57-19.6-24.8-6.45-.17-9.55,4.56-10.05,15.32-.46,10.09,3.95,17.92,10.19,18.08,10.12,.26,19.16-3.74,19.46-8.6Zm20.89,269.24c4.37-2.57,8.86-4.96,13.07-7.77,2.83-1.89,6.26-3.87,7.65-6.68,2.18-4.41,5.27-10.65,3.67-14.14-2.84-6.18-8.98-2.65-13.38,.02-3.5,2.13-6.55,5.02-9.75,7.65-2.47,2.03-4.85,4.17-7.62,6.58,2.56,5.78,4.47,10.06,6.37,14.34ZM576.57,218.02c2.74-.81,6.25-.51,8.2-2.15,3.06-2.56,7.34-6.6,7-9.54-.44-3.92-4.1-8.75-7.72-10.67-3.23-1.71-10.23-1.65-12.08,.56-3.2,3.81-3.69,9.89-5.1,14.32-.15,7.36,2.98,9.48,9.69,7.48Zm198.02,424.02c-1.36,6.32,7.67,15.71,13.62,14.3,4.26-1.01,10.19-4.53,11.13-8.06,1.97-7.38-5.04-12.66-18.1-12.68-1.07,.97-5.97,3.25-6.66,6.44Zm-29.28-366.89c1.88-1.74,1.91-7.11,.74-9.98-.94-2.3-4.95-4.6-7.67-4.69-10.03-.33-14.8,11.22-9.31,25.11,5.9-3.62,11.77-6.28,16.25-10.43ZM176.58,701.19c-3.39,.97-5.8,5.35-8.65,8.2,4.02,3.57,7.67,7.84,12.28,10.29,1.34,.71,5.43-3.79,7.01-4.96-.01-8.95-5.21-15.08-10.64-13.53Zm339.79,49.02c-.55-1.4-6.55-2.46-6.89-1.86-3.63,6.26-6.63,12.89-10.36,20.57,14.36,.85,21.39-8.2,17.25-18.71Zm246.25-381.7c.43-3.42-3.13-10.12-5.79-10.62-7.57-1.43-11.92,3.5-12.58,12.06,8.05,4.31,17.71,3.82,18.37-1.44Zm-511.83-7.14c-.81,2.15,.11,7.16,1.21,7.48,8.44,2.44,11.5-3.79,14.76-10.63-6.74-3.62-12.77-5.35-15.97,3.15Zm520.02,6.33c2.38,1.75,5.23,5.32,7.03,4.85,3.18-.84,6.15-3.81,8.23-6.61,.52-.7-2.67-4.16-5.53-8.36-4.37,4.54-7.05,7.33-9.73,10.12Z"/><path class="cls-1" d="M415.27,689.67c-.39,4.05-1.13,5.8-.57,6.84,6.37,11.92,1.05,23.75-.38,35.5-.75,6.13-5.26,9.85-11.7,9.14-6-.66-12.29-3.22-12.28-10.05,.02-8.85,1.16-17.95,3.46-26.5,2.8-10.43,1.52-19.22-5.18-27.66-4.57-5.76-6.98-6.04-11.38-.05-6.84,9.29-15.23,12.97-21.95,7.75-4.02-3.12-5.54-9.47-8.68-15.31-7.14,6.56-14.73,14.56-23.37,21.2-10.11,7.78-20.65,15.29-31.88,21.26-15.5,8.25-30.65,17.1-39.03,32.79-6.26,11.72-9.6,25.03-13.92,37.74-4.39,12.94-14.08,19.14-27.43,17.05-14.79-2.32-22.45-13.66-17.82-28.64,2.12-6.86,5.92-14.67,11.41-18.75,13.72-10.21,21.77-24.56,31.68-37.64,3.41-4.51,7.59-8.64,12.09-12.08,7.47-5.72,15.01-10.6,21.49-18.21,6.79-7.98,18.94-11.44,28.78-16.79,11.52-6.27,18.35-16.2,22.77-27.46-4.42-1.2-8.23-2.24-12.03-3.28,1.29-3.84,2.56-7.68,3.87-11.51,.93-2.73,1.92-5.44,3.47-9.81-7.07,3.93-12.2,6.78-17.27,9.59-4.44-6.71-6.84-12.79-1.61-19.72,1.69-2.24,3.69-6.62,2.72-7.92-1.54-2.08-5.39-2.7-8.39-3.35-1.51-.32-3.85,1.55-4.88,.91-15.86-9.79-26.14,1.03-36.5,10.06-11.65,10.16-24.56,12.05-38.83,7.73-7.05-2.13-11.23-7.34-12.14-14.4-1.89-14.67,6.39-33.61,26.74-34.65,11.77-.6,23.6-.04,35.4-.14,6.15-.05,12.42,.75,14.38-8.11,.55-2.51,5.95-3.99,9.18-5.85,5.75-3.31,6.35-7.97,.88-11.05-8.33-4.68-17.12-9.43-26.31-11.48-16.21-3.62-32.85-5.42-49.37-7.5-3.66-.46-7.6,.96-11.37,1.74-5,1.03-9.91,2.59-14.94,3.37-6.57,1.01-12.54-.4-14.56-7.68-2.4-8.63,1.54-16.56,9.27-20.55,6.21-3.21,12.45-3.04,18.84-.66,5.65,2.1,11.34,4.08,17,6.15,8.04,2.93,15.77,2.76,23.32-1.74,9.39-5.59,18.83-8.99,30.41-5.63,10.53,3.05,18.82-3.13,24-11.76,4.57-7.61,2.3-15.25-2.97-22.49-3.83-5.26-3.19-10.68,2.99-14.8,8.54-5.69,8.09-7.39,2.06-15.5-3-4.03-5.6-10.22-4.8-14.81,1.47-8.43-1.13-14.41-6.99-19.25-5.68-4.69-5.31-11.16-3.23-15.93,1.46-3.35,7.61-5.87,11.99-6.47,7.54-1.04,15.34-.56,23-.24,11.33,.47,18.43-13.92,11.81-25.76-2.97-5.31-7.69-9.91-12.4-13.91-11.67-9.9-23.43-19.77-35.87-28.65-7.38-5.26-16.33-8.25-24.19-12.9-7.71-4.56-15.9-8.99-22.15-15.2-7.86-7.82-7.54-16.01-1.72-25.04,5.93-9.2,17.38-15.19,26.37-11.97,8.99,3.21,17.64,7.78,25.8,12.8,11.45,7.04,22.88,14.35,33.22,22.89,6.41,5.29,11.41,12.66,15.89,19.82,4.64,7.42,8.24,13.67,19.21,11.88,10.13-1.65,13.08,6.58,14.59,15.13,2.38,13.5,10.73,16.63,18.41,17.31,7.14,.64,9.79-2.69,8.23-9.93-.48-2.23-1.26-4.43-2.14-6.55-3.85-9.37-.72-12.85,9.25-12.68,4.18,.07,9.09-3.07,12.35-6.14,1.48-1.39,.61-6.57-.65-9.37-7.29-16.15-13.32-32.67-25.27-46.77-6.01-7.09-7.06-19.07-8.55-29.1-1.29-8.66,8.25-13.46,17.16-10.26,13.63,4.89,17.03,17.62,21.85,28.71,3.35,7.73,3.7,16.72,5.76,25.06,1.01,4.07,1.87,8.93,4.59,11.61,2.91,2.87,7.93,3.61,12.04,5.28,.91-3.47,2.12-6.89,2.69-10.41,2.05-12.8-6.6-22.09-10.93-32.82-2.67-6.62-3.97-13.82-6.92-20.3-4.7-10.34-10.38-20.24-15.41-30.44-2.13-4.32-5.08-8.96-5.01-13.41,.06-3.71,3.25-8.49,6.49-10.58,1.74-1.12,8.12,1.53,9.54,4.07,3.09,5.55,4.56,12.07,6.29,18.3,1.59,5.74,1.88,11.95,4.11,17.39,5.42,13.18,11.29,26.21,17.72,38.92,2.42,4.78,6.97,8.46,10.42,12.75,6.79,8.43,13.47,16.94,20.22,25.4,5.66,7.09,8.85,6.19,13.73-1.32,1.91-2.93,8.19-5.43,11.53-4.54,7.5,2,11.93,.79,12.12-6.93,.44-17.61,.21-35.24,.03-52.86-.02-2.16-1.8-4.26-2.11-6.48-.69-4.89-.69-9.88-1.47-14.75-.81-5.06-1.71-10.22-3.49-15-2.56-6.88-.24-12.58,3.88-17.41,4.13-4.85,9.89-4.78,15.79-2.71,7.69,2.69,5.49,9.55,5.33,14.42-.3,9.45-3.08,18.82-3.49,28.27-.58,13.2-2.18,26.72,6.64,38.58,2.44,3.29,3.14,7.87,4.01,10.19,6.11,1.2,11.07,2.53,16.12,2.99,2.05,.18,5.29-.93,6.26-2.51,5.26-8.62,11.68-14.38,22.62-14.74,4.22-.14,9.05-2.84,12.34-5.78,6.06-5.44,12.98-4.6,19.85-4.31,5.47,.23,9.95,8.5,8.67,15.63-1.87,10.41-6.25,19.59-13.75,27.24-7.69,7.86-7.34,9.29,2.32,15.56,1.28,.83,1.97,2.66,2.75,4.13,.94,1.76,1.42,5.02,2.56,5.23,9.58,1.8,12.25,10.43,16.98,16.81,5.71,7.7,11.87,5.08,18,1.45,12.33-7.3,13.26-6.66,15.61,8.24,.54,3.4,3.69,7.42,6.75,9.02,2.08,1.09,6.66-.8,9.13-2.67,3.39-2.57,5.71-6.51,8.73-9.62,8.64-8.88,17.41-17.65,26.58-26.91,4.55,10.7-2.97,16.57-6.44,23.35-6.33,12.39-13.9,24.14-20.47,36.42-5.51,10.28-.68,18.47,9.01,23.66,11.57,6.19,23.8,6.98,36.01,9.24,9.98,1.84,13.31,10.94,7.03,19.08-2.41,3.13-6.36,5.02-9.12,7.94-2.27,2.39-6.01,6.75-5.27,8.01,2.39,4.09,5.92,8.81,10.09,10.32,18.09,6.54,19.22,9.47,6.81,25.47,2.59,2.1,5.71,3.82,7.68,6.42,2.16,2.85,5.23,7.07,4.46,9.7-2.34,8,1.81,10.73,7.77,13.6,11.74,5.65,12.38,17.09,1.65,24.42-9.5,6.49-19.01,12.96-28.44,19.55-.96,.67-1.36,2.15-1.53,2.45,4.35,3.5,10.42,6.04,11.37,9.84,.81,3.26-4.26,7.98-6.82,12.2,11.2,4.03,13.36,9.92,4.94,15.41-11.13,7.26-12.01,18.29-15.1,29.69,2.96,.47,5.77,1.53,8.42,1.22,12.81-1.52,19.49,7.24,25.95,15.67,2.2,2.87,3.8,8.33,2.51,11.14-1.38,2.98-6.84,6.3-9.97,5.83-8.88-1.33-17.89-3.6-26.03-7.29-5.38-2.44-8.91-2.86-12.88,1.35-5.09,5.39,.42,7.88,3.25,10.5,2.88,2.66,6.61,4.39,9.99,6.48,.96,.59,2.08,.93,3.04,1.52,6.4,3.97,9.17,13.3,4.47,17.6-5.35,4.9-10.88,.93-15.29-2.32-4.44-3.27-7.79-7.98-12-11.61-2.86-2.47-6.38-4.18-9.6-6.23-.69,.6-1.39,1.19-2.08,1.79,.92,3.12,1.23,6.61,2.86,9.3,6.07,10.02,12.72,19.69,18.84,29.69,1.69,2.77,2.89,6.16,3.22,9.38,.46,4.44,1.61,10.69-4.9,11.13-4.86,.32-11.67-.77-14.49-3.98-4.74-5.4-6.37-13.4-10.46-19.54-5.78-8.68-12.13-17.09-19.17-24.76-3.83-4.17-8.93-.71-8.87,6.21,.06,6.97,1.37,13.92,1.56,20.9,.24,9.14-1.44,10.01-9.15,5.52-8.37-4.88-14.75-1.93-13.38,7.39,2.23,15.24,5.94,30.31,9.74,45.28,5.21,20.51,20.52,34.94,32.22,51.51,8.08,11.44,9.09,30.4,.2,37.24-6.82,5.24-14.23,6-20.98,.16-9.07-7.86-13.52-18.75-13.86-29.75-.58-19.01-8.22-34.85-17.13-50.73-3.87-6.89-6.81-14.34-9.71-21.71-4.1-10.42-9.44-19.08-21.82-21.02-2.88-.45-5.68-2.71-8.1-4.66-8.01-6.49-15.18-5.66-20.46,3.38-5.5,9.41-9.45,19.23-1.14,29.37,.71,.87,1.41,1.97,1.58,3.05,1.97,12.77,4.38,25.51,5.55,38.36,.86,9.45-4.6,13.67-15.4,13.73-8.62,.04-12.59-3.63-12.45-12.8,.15-10.27,.67-20.57,1.73-30.78,1.59-15.33-5.82-27.33-20.25-32.7-3.36-1.25-7.28-3.78-8.73-6.79-3.46-7.16-7.97-5.64-12.76-2.69-5.55,3.42-10.75,4.32-17.61,3.96-4.69-.25-11.45,6.42-14.39,11.63-7.39,13.1-12.52,27.27-11.03,42.9,.13,1.38-.07,3.07-.77,4.2-8.54,13.56-7.94,28.64-8.2,43.81-.16,9.42-1.64,19.04-4.11,28.15-2.33,8.61-10.86,12.51-18.44,10.24-7.58-2.27-11.48-9.66-9.6-18.72,1.8-8.69,4.54-17.24,5.59-26.01,.7-5.9-.25-12.18-1.47-18.08-2.2-10.64,5.35-17.91,8.44-26.67,5.41-15.34,5.66-30.52-5.04-43.09-7.13-8.38-17.24-14.22-27.3-22.22Zm-55.35-98.22c-1.77,26.77,10.54,39.5,34.48,47.86,15.58,5.44,30.78,2.98,46.3,.99,9.46-1.21,19.76-3.82,28.41-1.34,9.36,2.68,18.08,9.61,25.57,16.36,12.96,11.66,26.67,21.69,43.84,25.43,13.69,2.98,28.57,4.01,38.87-7.05,18-19.32,30.56-41.76,23.81-69.61-3.72-15.34-10.92-28.96-23.97-39.44-5.51-4.42-13.04-8.76-12.94-18.48,.2-19.83-7.62-36.72-20.22-51.89-16.67-20.06-39.69-24.58-62.48-15.56-17.73,7.01-32.11,18.29-43.59,33.54-1.85,2.46-5.48,4.79-8.46,5.03-41.09,3.22-71.22,32.09-69.61,74.18Zm118.09-142.64c14.94,0,23.96-3.99,34.82-14.43,10.47-10.07,16.95-22.38,21.93-35.79,7.85-21.13,15.81-42.27,10.16-65.36-2.88-11.78-7.16-23.44-17.66-30.6-10.38-7.08-29.86-4.25-41.95,5.96-10.46,8.83-21.03,17.86-29.82,28.27-15.49,18.35-26.35,38.77-25.3,64.27,1.03,24.92,22.95,47.69,47.81,47.69Zm167.59-36.97c.33-30.89-4.68-56.37-23.01-77.91-6.38-7.5-16.39-12.06-24.73-9.25-20.15,6.8-35.18,19.98-41.96,40.04-5.75,17-8.93,34.9-12.77,52.51-3.12,14.3-.62,28.38,6.79,40.59,21.04,34.68,62.45,28.55,83.19-.4,10.51-14.68,13.75-31.43,12.49-45.58Zm-262.08,105.87c19.84-.46,34.93-11.35,40.25-23.87,10.65-25.09,6.07-48.95-5.9-71.8-7.82-14.93-18.56-17.73-34.04-10.41-7.77,3.67-15.96,7.29-22.41,12.76-15.33,12.99-28.6,27.87-26.05,50.16,1.58,13.8,4.54,27.88,18.81,34.35,9.22,4.18,19.52,5.96,29.34,8.81Zm257.76,73.85c16.95-.04,39.6-21.49,40.8-40.57,1.51-24.06-5.33-45.72-21.97-64.07-6.69-7.38-13.68-8.38-22.28-5.21-21.35,7.87-34.97,23.84-45.19,43.26-4.63,8.79-6.98,17.93-4.34,28.12,6.2,23.87,32.09,37.17,52.98,38.46Zm-233.68-217.25c-.83-.8-2.65-4.08-5.05-4.58-5.67-1.18-15.12,7.66-13.85,13.48,.68,3.15,4.87,6.58,8.25,7.84,3.89,1.45,10.53-7.99,10.66-16.74Zm116.19-82.7c1.21,1.11,3.33,4.48,6.2,5.33,4.27,1.26,13.35-10.39,13.01-16.85-.1-1.98-2.88-5.33-4.6-5.45-6.67-.45-14.51,7.82-14.61,16.97Zm89.9,20.48c.2-11.35-4.37-19.59-8.38-18.15-7,2.51-5.58,9.08-5.69,14.71,0,.29-.05,.62,.06,.86,1.6,3.53-.44,10.72,6.91,8.61,3.41-.98,5.94-4.98,7.1-6.02Zm46.07,147.24c4.17,4.56,6.57,9.64,9.79,10.22,8.02,1.44,8.6-6.57,8.36-11.12-.21-4.14-.7-12.27-7.94-10.91-3.45,.65-5.9,6.57-10.21,11.81Z"/></svg>