<?xml version="1.0" encoding="UTF-8"?><svg id="Layer_1" xmlns="http://www.w3.org/2000/svg" viewBox="0 0 697.7 700"><defs><style>.cls-1{fill:#dc3f27;}</style></defs><path class="cls-1" d="M344.71,694.44c-2.85-3-4.4-6.75-4.4-6.75-3.87-9.41,.53-19.06,1.69-23.13,7.67-26.97,14.73-54.14,23.38-80.79,3.03-9.33,8.54-18.82,15.4-25.79,62.52-63.47,125.48-126.52,188.55-189.45,28.58-28.51,52.43-27.37,71.23-23.1,24.93,5.66,47.36,28.62,54.55,54.94,4.34,15.91,2.02,29.03,1.47,31.89-5.15,26.83-25.74,43.53-35.19,51.47,0,0-11.95,10.83-175.24,175.68-1.88,1.9-7.43,7.6-16.36,12.61-7.46,4.19-13.81,5.95-16.34,6.65-49.59,13.82-95.12,30.07-108.74,15.76Z"/><path class="cls-1" d="M451.28,411.03c-3.28,3.29-8.63,3.32-11.94,.07-32.98-32.36-65.18-63.86-97.24-95.49-13.54-13.36-29.27-21.31-48.55-21.38-20.21-.07-36.17,8.81-50.3,22.71-73.55,72.39-147.3,144.59-220.98,216.85-.59,.58-1.19,1.16-1.79,1.74-4.18,4.02-11.13,2.73-13.55-2.54-4.51-9.85-6.65-20.15-6.67-30.83C.04,363.83-.22,225.51,.33,87.19,.51,40.04,39.93,.59,87,.4c137.54-.54,275.08-.53,412.62-.01,46.67,.18,85.98,38.84,86.68,85.55,1.03,68,.43,136.04,.08,204.05-.02,2.99-3.55,7.54-6.55,8.84-16.88,7.31-33.08,16.1-46,29.2-27.09,27.48-54.39,54.74-82.56,82.99Zm-51.54-165.96c31.55-.28,57.02-26.1,56.68-57.45-.34-31.32-26.55-57.2-57.55-56.86-31.45,.35-56.71,26.18-56.45,57.73,.26,31.77,25.69,56.86,57.32,56.58Z"/><path class="cls-1" d="M401.09,449.79c3.1,3.31,3.07,8.47-.1,11.71-13.34,13.61-28.33,29.55-44.54,44.13-21.39,19.25-35.87,41.87-40.68,70.34-1.67,9.9-6.33,12.9-16.73,12.81-68.9-.59-137.82,.12-206.72-.65-10.22-.11-20.42-2.37-31.67-4.76-6.58-1.39-9.02-9.56-4.23-14.27l.08-.08c73.32-71.98,146.66-143.94,220.01-215.89,13.33-13.07,20.78-13.48,33.37-.27,30.32,31.83,60.29,63.98,91.21,96.92Z"/></svg>