<svg xmlns="http://www.w3.org/2000/svg" viewBox="0 0 480 128"><defs><style>.a{fill:#ffc439;}.b{fill:#1e1e1e;}</style></defs><rect class="a" width="480" height="128" rx="64"/><path class="b" d="M160.87,62.79a18,18,0,0,1-6.75,5.48,22.69,22.69,0,0,1-10.05,2.08H137l-3,16.94H122.43l8.34-47.18h18.61q7.4,0,11.15,3.26a11.1,11.1,0,0,1,3.77,8.84A16.46,16.46,0,0,1,164,55.3,17.22,17.22,0,0,1,160.87,62.79Zm-8.53-7.49c.08-.72.13-1.23.13-1.55a4.12,4.12,0,0,0-1.38-3.32,6.38,6.38,0,0,0-4.2-1.18h-6.25l-2.08,12.1h6.18Q151.19,61.35,152.34,55.3Z" transform="translate(-0.5 0.5)"/><path class="b" d="M169.4,58.32a21.18,21.18,0,0,1,7.13-6.72,17.69,17.69,0,0,1,8.8-2.35A12.77,12.77,0,0,1,192,50.86a9.63,9.63,0,0,1,3.9,4.24l.94-5.31h11.49l-6.65,37.5H190.17l1-5.31a16.36,16.36,0,0,1-12.7,5.84,13.51,13.51,0,0,1-7-1.81,12.14,12.14,0,0,1-4.73-5.14A17.18,17.18,0,0,1,165,73a27.71,27.71,0,0,1,.4-4.57A25.81,25.81,0,0,1,169.4,58.32Zm24.33,8a6.9,6.9,0,0,0-1.92-5.17,6.63,6.63,0,0,0-4.87-1.89,9.3,9.3,0,0,0-6.25,2.46,11.06,11.06,0,0,0-3.56,6.75,14.15,14.15,0,0,0-.2,2.22,7.08,7.08,0,0,0,1.91,5.21,6.55,6.55,0,0,0,4.81,1.91,9.27,9.27,0,0,0,6.25-2.48,11.59,11.59,0,0,0,3.63-6.79A14.15,14.15,0,0,0,193.73,66.32Z" transform="translate(-0.5 0.5)"/><path class="b" d="M225.18,49.79l4.57,23.45,12.76-23.45H255l-33.27,55.3H209.32l12-19.08-8.87-36.22Z" transform="translate(-0.5 0.5)"/><path class="b" d="M290.9,62.79a18,18,0,0,1-6.76,5.48,22.61,22.61,0,0,1-10,2.08H267l-3,16.94H252.46l8.33-47.18H279.4q7.39,0,11.16,3.26a11.1,11.1,0,0,1,3.76,8.84,16.46,16.46,0,0,1-.27,3.09A17.2,17.2,0,0,1,290.9,62.79Zm-8.54-7.49a14.48,14.48,0,0,0,.14-1.55,4.12,4.12,0,0,0-1.38-3.32,6.38,6.38,0,0,0-4.2-1.18h-6.25l-2.09,12.1h6.19Q281.22,61.35,282.36,55.3Z" transform="translate(-0.5 0.5)"/><path class="b" d="M299.43,58.32a21.15,21.15,0,0,1,7.12-6.72,17.73,17.73,0,0,1,8.81-2.35A12.77,12.77,0,0,1,322,50.86a9.63,9.63,0,0,1,3.9,4.24l.94-5.31h11.49l-6.66,37.5H320.19l1-5.31a16.08,16.08,0,0,1-5.44,4.23,16.24,16.24,0,0,1-7.26,1.61,13.49,13.49,0,0,1-7-1.81,12.23,12.23,0,0,1-4.74-5.14A17.18,17.18,0,0,1,295.06,73a28.85,28.85,0,0,1,.4-4.57A26,26,0,0,1,299.43,58.32Zm24.32,8a6.9,6.9,0,0,0-1.91-5.17A6.65,6.65,0,0,0,317,59.26a9.28,9.28,0,0,0-6.25,2.46,11.06,11.06,0,0,0-3.56,6.75,13,13,0,0,0-.2,2.22,7,7,0,0,0,1.91,5.21,6.55,6.55,0,0,0,4.81,1.91,9.25,9.25,0,0,0,6.24-2.48,11.48,11.48,0,0,0,3.63-6.79A13,13,0,0,0,323.75,66.32Z" transform="translate(-0.5 0.5)"/><path class="b" d="M360.31,37.56l-8.8,49.73H340l8.8-49.73Z" transform="translate(-0.5 0.5)"/></svg>