<?xml version="1.0" encoding="utf-8"?>
<!-- Svg Vector Icons : http://www.onlinewebfonts.com/icon -->
<!DOCTYPE svg PUBLIC "-//W3C//DTD SVG 1.1//EN" "http://www.w3.org/Graphics/SVG/1.1/DTD/svg11.dtd">
<svg version="1.1" xmlns="http://www.w3.org/2000/svg" xmlns:xlink="http://www.w3.org/1999/xlink" x="0px" y="0px" viewBox="0 0 1000 1000" enable-background="new 0 0 1000 1000" xml:space="preserve">
<metadata> Svg Vector Icons : http://www.onlinewebfonts.com/icon </metadata>
<g><path d="M608.9,648.2c5.8,5.8,5.8,11.5,0,16.9C586.3,687.7,550,699,500,699s-86.3-11.3-108.9-33.9c-5.8-5.5-5.8-11.1,0-16.9c2.2-2.2,4.9-3.3,8.2-3.3c3.3,0,6,1.1,8.2,3.3c17.5,17.9,48.3,26.8,92.4,26.8c43.7,0,74.5-8.9,92.4-26.8c2.2-2.2,4.9-3.3,8.2-3.3c3.3,0,6,1.1,8.2,3.3H608.9z M440.9,549.2c0,13.5-4.7,25-14.2,34.4c-9.5,9.5-21,14.2-34.4,14.2c-13.5,0-25.1-4.7-34.7-14.2c-9.7-9.5-14.5-21-14.5-34.4c0-13.9,4.8-25.5,14.5-35c9.7-9.5,21.2-14.2,34.7-14.2c13.5,0,25,4.8,34.4,14.5C436.2,524.2,440.9,535.7,440.9,549.2z M656.9,549.2c0,13.5-4.8,25-14.5,34.4c-9.7,9.5-21.2,14.2-34.7,14.2c-13.5,0-25-4.7-34.4-14.2c-9.5-9.5-14.2-21-14.2-34.4c0-13.5,4.7-25.1,14.2-34.7c9.5-9.7,21-14.5,34.4-14.5c13.5,0,25.1,4.7,34.7,14.2S656.9,535.4,656.9,549.2z M794.2,483.6c0-17.9-6.4-33.2-19.1-45.9c-12.7-12.7-28.2-19.1-46.5-19.1c-18.2,0-33.9,6.6-47,19.7c-47.4-32.8-104.1-50.3-170.1-52.5L545.9,231l109.4,24.6c0,13.5,4.7,25,14.2,34.4c9.5,9.5,21,14.2,34.4,14.2c13.5,0,25.1-4.8,34.7-14.5c9.7-9.7,14.5-21.2,14.5-34.7c0-13.5-4.8-25.1-14.5-34.7c-9.7-9.7-21.2-14.5-34.7-14.5c-19.7,0-34.3,9.1-43.8,27.4l-120.9-26.8c-6.9-1.8-11.5,1.1-13.6,8.8L488,385.8c-65.6,2.6-121.9,20.3-169,53.1c-12.7-13.5-28.6-20.2-47.6-20.2c-18.2,0-33.7,6.4-46.5,19.1c-12.7,12.7-19.1,28-19.1,45.9c0,12.7,3.4,24.4,10.2,35c6.8,10.6,15.8,18.6,27.1,24.1c-2.2,9.8-3.3,20.1-3.3,30.7c0,51.8,25.5,96,76.6,132.9c51.1,36.8,112.5,55.2,184.3,55.2c72.2,0,133.8-18.4,184.9-55.2c51.1-36.8,76.6-81.1,76.6-132.9c0-11.7-1.3-22-3.8-31.1c10.9-5.5,19.7-13.4,26.3-23.8c6.6-10.4,9.9-22,9.9-34.7L794.2,483.6z M990,500c0,66.4-13,129.8-38.8,190.3c-25.9,60.5-60.7,112.7-104.4,156.4s-95.9,78.5-156.4,104.4C629.8,977,566.4,990,500,990s-129.8-13-190.3-38.9c-60.5-25.9-112.7-60.7-156.4-104.4S74.8,750.9,48.9,690.3C22.9,629.8,10,566.4,10,500s12.9-129.8,38.9-190.3c25.9-60.5,60.7-112.7,104.4-156.4s95.9-78.5,156.4-104.4C370.2,22.9,433.6,10,500,10s129.8,12.9,190.3,38.9c60.5,25.9,112.7,60.7,156.4,104.4s78.5,95.9,104.4,156.4C977,370.2,990,433.6,990,500z"/></g>
</svg>