<?xml version="1.0" encoding="utf-8"?>
<!-- Svg Vector Icons : http://www.onlinewebfonts.com/icon -->
<!DOCTYPE svg PUBLIC "-//W3C//DTD SVG 1.1//EN" "http://www.w3.org/Graphics/SVG/1.1/DTD/svg11.dtd">
<svg version="1.1" xmlns="http://www.w3.org/2000/svg" xmlns:xlink="http://www.w3.org/1999/xlink" x="0px" y="0px" viewBox="0 0 1000 1000" enable-background="new 0 0 1000 1000" xml:space="preserve">
<metadata> Svg Vector Icons : http://www.onlinewebfonts.com/icon </metadata>
<g><path d="M772.2,500c0-152.4-119.8-272.2-272.2-272.2v544.4C652.4,772.2,772.2,652.4,772.2,500L772.2,500z M881.1,10H118.9C59,10,10,59,10,118.9v762.2C10,941,59,990,118.9,990h762.2C941,990,990,941,990,881.1V118.9C990,59,941,10,881.1,10L881.1,10z M881.1,881.1H500V772.2c-152.4,0-272.2-119.8-272.2-272.2S347.6,227.8,500,227.8V118.9h381.1V881.1L881.1,881.1z"/></g>
</svg>