<svg xmlns="http://www.w3.org/2000/svg" viewBox="0 0 968.55 965.2"><defs><style>.a{stroke:#000;stroke-miterlimit:10;stroke-width:36px;}</style></defs><path class="a" d="M910.13,80.79Q862.88,35.4,806.68,35.4q-63.52,0-112.49,49L118.82,657.88a27.09,27.09,0,0,0-7.23,14.56Q108,685.15,35.36,926.53c-3.62,12.09-1.24,22.37,7.23,30.84,6.09,4.85,13.33,7.23,21.8,7.23h9Q262.15,901.08,323.9,883a28.86,28.86,0,0,0,10.85-7.23Q870.06,347.54,911.84,304.05q54.39-56.24,54.43-114.29Q964.56,131.52,910.13,80.79ZM685.06,177q45.39,10.85,85.27,50.82,38.11,38.1,47.2,87.07Q694.2,438.25,336.66,792.16q-18.14-43.54-49-74.42-38.1-38.12-85.26-58l137.89-137.9L540.79,321.28ZM162.41,708.7q45.39,10.84,83.46,50.82a171.83,171.83,0,0,1,43.58,72.61q-18.12,5.43-86.22,29T104.36,893.8c6.09-18.18,16-49.58,30-94.41S157.55,724.4,162.41,708.7ZM870.16,262.28l-5.43,5.42q-18.12-47.25-52.63-81.65-36.26-36.26-79.84-56.25l1.81-1.8,1.81-1.81q32.68-32.68,70.8-32.64,32.69,0,63.48,30.83,36.26,34.55,36.25,67.19C906.41,213.36,894.42,236.87,870.16,262.28Z" transform="translate(-15.73 -17.4)"/></svg>