<svg xmlns="http://www.w3.org/2000/svg" viewBox="0 0 988.65 989"><defs><style>.a{stroke:#000;stroke-miterlimit:10;stroke-width:60px;}</style></defs><path class="a" d="M920.56,38.64C868,52.42,768,105,667.53,171.45,497.78,283.88,373.37,407.31,316.64,518.94c-16.17,31.95-24.76,55.52-32.35,89.06l-1,5H258.73c-67.29,0-102.65,27.55-153.17,119.82-34.75,63.51-61.9,139.4-68.1,191.32-2.6,21.37-1.6,26.76,6.19,34.35,5.79,5.4,7,5.79,21.37,5.4,60.51-1.8,168.55-43.54,248-96.06,55.12-36.35,77.49-74.69,75.49-129.41l-.8-20.77,8.19-2.2c26.36-6.79,34.15-9.19,54.52-17.38C566.88,652.14,702.07,520.93,827.7,332.21c65.51-98.45,124.82-210.69,135.4-256.62,4.8-20.37-.4-32.95-15.58-38.75C940.13,34.06,937.93,34.26,920.56,38.64ZM915.17,89c-2.4,8.19-28.76,61.91-43.33,88.47C795.15,316.83,683.11,466,591.65,550.09l-28,25.77-70.3-70.3-70.29-70.3,6-7.39c10.18-13,52.12-55.72,74.69-76.49C599,264.51,735.24,171,854.26,111.53c20.17-10.18,57.72-27,60.51-27C915.77,84.57,915.77,86.57,915.17,89ZM463.63,535.72c36.15,36.14,65.11,66.5,64.3,67.7-2,3.39-35.15,25.36-55.12,36.55-21.77,12.18-56.12,26.56-71.5,30.15l-10.58,2.2L359,640.76l-31.55-31.55,4-14.18c5.59-19.57,14.17-40.74,25.76-63.11C367.76,511.15,393.92,470,396.32,470,397.33,470,427.48,499.57,463.63,535.72ZM278.1,656.54c48.73,13,78.29,62.11,65.91,109.64-4.4,17-12.19,30.76-23.77,42.34-34.15,34.15-139.19,86.67-210.09,104.84-30.15,7.79-29.36,8-27.76-2.6C91.58,855.84,142.3,743,179.85,694.28,205.2,661.33,242.35,647,278.1,656.54Z" transform="translate(-6.17 -5)"/></svg>