<svg xmlns="http://www.w3.org/2000/svg" viewBox="0 0 512 512"><defs><style>.a{fill:none;stroke:#000;stroke-miterlimit:10;stroke-width:55px;}</style></defs><path d="M256,0C114.6,0,0,114.6,0,256S114.6,512,256,512,512,397.4,512,256,397.4,0,256,0Zm0,464C141.3,464,48,370.69,48,256S141.3,48,256,48s208,93.31,208,208S370.7,464,256,464Z"/><path class="a" d="M265.1,23.45c75.25,61.24,112.78,159.05,98.13,255.88C340.32,430.79,230,482.78,223.67,485.37"/><path class="a" d="M30.36,244.88a875,875,0,0,0,268.76,29.59,871.94,871.94,0,0,0,197.26-32.06"/></svg>